<svg xmlns="http://www.w3.org/2000/svg" viewBox="0 0 800 520" aria-hidden="true"><defs><linearGradient id="bg" x1="0" y1="0" x2="1" y2="1"><stop stop-color="#4f432e"/><stop offset=".5" stop-color="#22211c"/><stop offset="1" stop-color="#0e100d"/></linearGradient><filter id="glow"><feGaussianBlur stdDeviation="8"/></filter></defs><rect width="800" height="520" fill="url(#bg)"/><g fill="#e2b75a" filter="url(#glow)" opacity=".6"><circle cx="130" cy="75" r="17"/><circle cx="230" cy="110" r="14"/><circle cx="610" cy="85" r="20"/><circle cx="690" cy="125" r="13"/><circle cx="520" cy="145" r="10"/></g><path d="M70 350c175-55 489-55 660 0v170H70Z" fill="#181913"/><g stroke="#e2d9c4" fill="none" stroke-width="4" opacity=".9"><path d="M185 240c0 62 9 108 51 137 42-29 51-75 51-137Z"/><path d="M236 377v75M205 452h62"/><path d="M500 225c0 65 10 113 54 143 44-30 54-78 54-143Z"/><path d="M554 368v84M520 452h68"/></g><g fill="#d7a948"><rect x="340" y="208" width="7" height="120"/><rect x="392" y="192" width="7" height="136"/><rect x="444" y="213" width="7" height="115"/></g><g fill="#f4df9a"><ellipse cx="343" cy="202" rx="10" ry="18"/><ellipse cx="395" cy="186" rx="10" ry="18"/><ellipse cx="447" cy="207" rx="10" ry="18"/></g><g fill="#65734c"><ellipse cx="392" cy="330" rx="110" ry="28"/><ellipse cx="332" cy="320" rx="44" ry="17" transform="rotate(-22 332 320)"/><ellipse cx="458" cy="320" rx="44" ry="17" transform="rotate(22 458 320)"/></g><g fill="#9d7443"><circle cx="350" cy="314" r="12"/><circle cx="380" cy="304" r="13"/><circle cx="410" cy="309" r="12"/><circle cx="438" cy="316" r="11"/></g><g stroke="#b79f74" stroke-width="3" opacity=".7"><path d="M110 420h580"/><path d="M135 460h530"/></g></svg>