<svg xmlns="http://www.w3.org/2000/svg" viewBox="0 0 800 520" aria-hidden="true"><defs><radialGradient id="bg" cx="50%" cy="40%" r="75%"><stop stop-color="#54472f"/><stop offset=".5" stop-color="#24231e"/><stop offset="1" stop-color="#10110e"/></radialGradient><linearGradient id="wine" x1="0" y1="0" x2="0" y2="1"><stop stop-color="#f2d98e" stop-opacity=".88"/><stop offset="1" stop-color="#a57025" stop-opacity=".75"/></linearGradient><filter id="glow"><feGaussianBlur stdDeviation="9"/></filter></defs><rect width="800" height="520" fill="url(#bg)"/><g fill="#e2b95a" filter="url(#glow)" opacity=".65"><circle cx="90" cy="92" r="18"/><circle cx="165" cy="65" r="12"/><circle cx="625" cy="85" r="20"/><circle cx="700" cy="150" r="14"/><circle cx="590" cy="210" r="11"/><circle cx="235" cy="170" r="10"/></g><g fill="none" stroke="#e9e0c6" stroke-width="5" opacity=".9"><path d="M313 80c0 88 12 152 78 194 66-42 78-106 78-194Z"/><path d="M391 274v126M344 400h94"/></g><path d="M327 157c12 62 33 95 64 117 31-22 52-55 64-117Z" fill="url(#wine)" opacity=".9"/><g fill="none" stroke="#d4c5a4" stroke-width="4" opacity=".85"><rect x="505" y="248" width="112" height="154" rx="14"/><path d="M505 285h112M520 248l82 154M603 248l-82 154" opacity=".35"/></g><rect x="0" y="432" width="800" height="88" fill="#0a0b09" opacity=".48"/></svg>